<svg width="147" height="40" viewBox="0 0 147 40" fill="none" xmlns="http://www.w3.org/2000/svg">
<g clip-path="url(#clip0_8_8)">
<path d="M27.3506 0.821045H12.0074C5.65203 0.821045 0.5 5.97308 0.5 12.3284V27.6716C0.5 34.027 5.65203 39.179 12.0074 39.179H27.3506C33.7059 39.179 38.858 34.027 38.858 27.6716V12.3284C38.858 5.97308 33.7059 0.821045 27.3506 0.821045Z" fill="#0F86F5"/>
<path fill-rule="evenodd" clip-rule="evenodd" d="M15.2197 10.4204C17.7528 10.546 19.714 12.3378 21.5233 14.0926C23.3555 15.8696 25.2859 17.7837 25.4226 20.3158C25.5645 22.9476 24.1977 25.4551 22.2321 27.2388C20.3441 28.9519 17.7831 29.5021 15.2197 29.5733C12.5618 29.6474 9.63209 29.5431 7.80061 27.6401C5.99441 25.7634 6.22832 22.9033 6.30998 20.3158C6.38806 17.8417 6.58325 15.284 8.24897 13.434C10.0009 11.4883 12.5861 10.2897 15.2197 10.4204Z" fill="#4AA4F8"/>
<path fill-rule="evenodd" clip-rule="evenodd" d="M17.1377 10.4204C19.6708 10.546 21.632 12.3378 23.4413 14.0926C25.2735 15.8696 27.2039 17.7837 27.3405 20.3158C27.4825 22.9476 26.1157 25.4551 24.1501 27.2388C22.262 28.9519 19.7011 29.5021 17.1377 29.5733C14.4798 29.6474 11.5501 29.5431 9.71858 27.6401C7.91238 25.7634 8.14629 22.9033 8.22794 20.3158C8.30603 17.8417 8.50122 15.284 10.1669 13.434C11.9188 11.4883 14.504 10.2897 17.1377 10.4204Z" fill="#75BAFA"/>
<path fill-rule="evenodd" clip-rule="evenodd" d="M20.0144 10.4204C22.5475 10.546 24.5086 12.3378 26.3179 14.0926C28.1502 15.8696 30.0806 17.7837 30.2173 20.3158C30.3592 22.9476 28.9924 25.4551 27.0268 27.2388C25.1387 28.9519 22.5778 29.5021 20.0144 29.5733C17.3565 29.6474 14.4268 29.5431 12.5953 27.6401C10.7891 25.7634 11.023 22.9033 11.1047 20.3158C11.1827 17.8417 11.3779 15.284 13.0436 13.434C14.7956 11.4883 17.3807 10.2897 20.0144 10.4204Z" fill="#C4E1FD"/>
<path fill-rule="evenodd" clip-rule="evenodd" d="M22.8913 10.4204C25.4245 10.546 27.3856 12.3378 29.1949 14.0926C31.0272 15.8696 32.9576 17.7837 33.0942 20.3158C33.2361 22.9476 31.8694 25.4551 29.9038 27.2388C28.0156 28.9519 25.4547 29.5021 22.8913 29.5733C20.2335 29.6474 17.3037 29.5431 15.4722 27.6401C13.666 25.7634 13.9 22.9033 13.9816 20.3158C14.0597 17.8417 14.2549 15.284 15.9206 13.434C17.6725 11.4883 20.2577 10.2897 22.8913 10.4204Z" fill="white"/>
<path d="M55.898 28.6605C51.7513 28.6605 49.2678 26.5142 49.2678 22.9293H52.1782C52.2008 24.952 53.5944 26.1545 55.9205 26.1545C58.0108 26.1545 59.3929 25.2105 59.3929 23.7384C59.3929 22.5585 58.5164 21.873 56.2801 21.356L54.4821 20.9515C51.1332 20.1873 49.5936 18.7152 49.5936 16.3665C49.5936 13.3773 52.0548 11.377 55.752 11.377C59.4941 11.377 61.8202 13.3998 61.9214 16.7261H59.1009C58.9772 14.9618 57.696 13.8942 55.7407 13.8942C53.8866 13.8942 52.5716 14.8494 52.5716 16.2204C52.5716 17.3442 53.4369 17.9735 55.617 18.4792L57.3139 18.8725C60.7865 19.6479 62.3484 21.0976 62.3484 23.5586C62.3484 26.6827 59.8649 28.6605 55.898 28.6605ZM67.2594 21.6819V28.3908H64.4274V16.5238H67.2143V18.3443C68.0234 17.007 69.2259 16.2878 70.8554 16.2878C73.3389 16.2878 75.0921 17.9285 75.0921 20.9739V28.3908H72.2488V21.4235C72.2488 19.6816 71.3723 18.7714 69.8553 18.7714C68.3718 18.7714 67.2594 19.6591 67.2594 21.6819ZM82.9245 28.6605C79.4297 28.6605 77.0699 26.1545 77.0699 22.4686C77.0699 18.7826 79.4297 16.2541 82.9245 16.2541C86.4197 16.2541 88.7794 18.7826 88.7794 22.4686C88.7794 26.1545 86.4197 28.6605 82.9245 28.6605ZM82.9245 26.2893C84.7451 26.2893 85.9026 24.8286 85.9026 22.4686C85.9026 20.0974 84.7338 18.6253 82.9245 18.6253C81.1042 18.6253 79.9355 20.0862 79.9355 22.4686C79.9355 24.8398 81.0929 26.2893 82.9245 26.2893ZM92.9935 28.3908L89.3301 16.5238H92.3081L93.5329 21.0301C93.9038 22.4461 94.2411 23.9632 94.6007 25.4353C94.9713 23.9632 95.3309 22.4461 95.7244 21.0301L96.983 16.5238H99.6014L100.849 21.0301C101.231 22.4348 101.59 23.9407 101.961 25.4128C102.298 23.9407 102.647 22.4348 103.018 21.0301L104.242 16.5238H107.254L103.58 28.3908H100.635L99.1969 23.4462C98.8822 22.3449 98.5899 21.1875 98.2867 20.03C97.9944 21.1875 97.7022 22.3449 97.3764 23.4462L95.9154 28.3908H92.9935ZM115.132 28.6267C113.581 28.6267 112.277 27.9526 111.536 26.5815H111.513V28.3908H108.726V11.6467H111.558V18.2095H111.581C112.345 16.9059 113.603 16.2878 115.143 16.2878C118.2 16.2878 120.267 18.7938 120.267 22.4461C120.267 26.1433 118.234 28.6267 115.132 28.6267ZM114.469 26.2557C116.222 26.2557 117.402 24.9072 117.402 22.4461C117.402 19.9963 116.222 18.6365 114.469 18.6365C112.615 18.6365 111.401 20.1424 111.401 22.4461C111.401 24.7611 112.615 26.2557 114.469 26.2557ZM126.819 28.6267C123.718 28.6267 121.683 26.1433 121.683 22.4461C121.683 18.7938 123.751 16.2878 126.796 16.2878C128.336 16.2878 129.662 16.9171 130.393 18.1758H130.438V16.5238H133.213V28.3908H130.438V26.6041H130.404C129.662 27.9526 128.37 28.6267 126.819 28.6267ZM127.482 26.2557C129.336 26.2557 130.55 24.7611 130.55 22.4461C130.55 20.1424 129.336 18.6365 127.482 18.6365C125.729 18.6365 124.549 19.9963 124.549 22.4461C124.549 24.9072 125.729 26.2557 127.482 26.2557ZM139.304 28.3908C136.776 28.3908 135.742 27.5369 135.742 25.3567V11.6467H138.574V25.0757C138.574 25.9074 138.832 26.1545 139.653 26.1545H140.124V28.3908H139.304ZM145.26 28.3908C142.732 28.3908 141.698 27.5369 141.698 25.3567V11.6467H144.53V25.0757C144.53 25.9074 144.788 26.1545 145.608 26.1545H146.08V28.3908H145.26Z" fill="white"/>
</g>
<defs>
<clipPath id="clip0_8_8">
<rect width="146" height="38.358" fill="white" transform="translate(0.5 0.821045)"/>
</clipPath>
</defs>
</svg>
